# Blender v2.81 (sub 16) OBJ File: ''
# www.blender.org
mtllib solidplanei.mtl
o Plane
v -296.039642 0.000048 -296.039642
v 296.039642 -0.000048 296.039642
v -296.039642 -0.000048 296.039642
v 296.039642 0.133875 296.039642
v -296.039642 0.133971 -296.039642
v -296.039642 0.133875 296.039642
v 296.039642 0.133971 -296.039642
v 296.039642 0.000048 -296.039642
vt 0.000000 1.000000
vt 0.000000 0.000000
vt 1.000000 0.000000
vt 1.000000 0.000000
vt 0.000000 0.000000
vt 0.000000 1.000000
vt 1.000000 1.000000
vt 1.000000 1.000000
vn 0.0000 1.0000 0.0000
vn 0.0000 -1.0000 -0.0000
vn 0.0000 0.0000 1.0000
vn 0.0000 0.0000 -1.0000
vn -1.0000 0.0000 0.0000
vn 1.0000 0.0000 0.0000
usemtl None
s 1
f 1/1/1 3/2/1 2/3/1
f 4/4/2 6/5/2 5/6/2
f 1/1/3 8/7/3 7/8/3
f 2/3/4 3/2/4 6/5/4
f 8/7/5 2/3/5 4/4/5
f 3/2/6 1/1/6 5/6/6
f 1/1/1 2/3/1 8/7/1
f 4/4/2 5/6/2 7/8/2
f 1/1/3 7/8/3 5/6/3
f 2/3/4 6/5/4 4/4/4
f 8/7/5 4/4/5 7/8/5
f 3/2/6 5/6/6 6/5/6
